<svg width="102" height="34" fill="none" xmlns="http://www.w3.org/2000/svg"><path d="M44.067 7.533l.272.136c.068 0 .136.068.136.135v.611c-.136.068-.272.136-.408.136-.544 0-.884-.407-.884-1.018 0-.61.34-1.086.952-1.086.136 0 .476 0 .816.272l.136-.408c-.408-.135-.612-.203-.952-.203-.816 0-1.495.475-1.495 1.425 0 .882.611 1.357 1.427 1.357.612 0 .952-.203 1.02-.271V7.397h-.884l-.136.136zm3.466-1.086l-.068-.34h-1.903l-.068.137.068.067c.068.068.068.068.068.204v2.307h1.835v-.339h-1.223v-.882h1.088v-.34h-1.088v-.814h1.291zm51.455-2.172c-4.758.408-29.16 2.715-30.315 2.85-2.108.272-3.06.815-3.807 2.037-2.583 4.004-3.738 5.972-7.069 8.618-.136.136-.136.204.136.204 3.739-.61 6.525-1.222 11.895-2.443.204-.068.204-.068 0-.136-2.31-.135-4.35-.271-5.71-.407-.34 0-.34-.136-.203-.34.407-.474.747-.542 1.767-.542.951 0 3.263 0 5.573.068 4.623 0 9.245-1.154 14.886-3.054.068 0 .068-.068 0-.068-7.952.204-17.672.271-19.236.271-.204 0-.204-.135-.068-.339.34-.407.748-.61 2.108-.746 1.835-.136 17.604-.883 20.187-1.018 3.059-.136 4.894-.611 7.409-2.511.748-.543 1.7-1.358 2.583-2.24.136-.136.136-.204-.136-.204zM50.048 7.94l-1.495-1.832h-.544l-.068.136.136.067c.068.068.136.068.136.204v2.307h.408V7.058l1.36 1.764h.475V6.108h-.408V7.94zm-5.845 9.84c-3.33-2.646-4.486-4.614-7.07-8.618-.747-1.222-1.699-1.765-3.806-2.036C32.172 6.99 7.838 4.75 3.012 4.276c-.272 0-.272.067-.068.203.816.882 1.835 1.697 2.515 2.24 2.515 1.9 4.35 2.375 7.409 2.51 2.583.068 18.352.883 20.188 1.019 1.359.067 1.699.339 2.107.746.136.204.204.34-.068.34-1.564 0-11.216-.069-19.236-.272-.068 0-.068.068 0 .068 5.71 1.9 10.263 3.054 14.885 3.054 2.312 0 4.69-.068 5.574-.068 1.02 0 1.428.068 1.767.543.136.203.136.339-.203.339-1.428.136-3.4.272-5.71.407-.204 0-.204.068 0 .136 5.302 1.29 8.157 1.832 11.895 2.443.272 0 .272-.068.136-.204zM54.738 7.194c-.34-.204-.68-.272-.68-.543 0-.136.137-.272.409-.272.271 0 .543.136.815.204l.068-.407a2.926 2.926 0 00-.816-.136c-.68 0-1.02.34-1.02.746 0 .408.273.611.68.815.34.136.68.271.68.543 0 .203-.136.339-.475.339-.272 0-.612-.136-.816-.204l-.068.475c.136 0 .544.136.884.136.543 0 1.087-.271 1.087-.746-.068-.543-.408-.747-.748-.95zm3.875 0c-.34-.204-.68-.272-.68-.543 0-.136.136-.272.408-.272.272 0 .544.136.816.204l.068-.407a2.926 2.926 0 00-.816-.136c-.68 0-1.088.34-1.088.746 0 .408.272.611.68.815.34.136.68.271.68.543 0 .203-.136.339-.476.339-.272 0-.612-.136-.816-.204l-.068.475c.136 0 .544.136.884.136.544 0 1.087-.271 1.087-.746 0-.543-.34-.747-.68-.95zm43.162-5.837c-.544.068-22.091.95-35.006 1.425-3.194.136-4.146.068-6.797-.746C56.03.814 52.495 0 51 0c-1.495 0-5.03.814-8.972 2.036-2.651.882-3.603.95-6.797.746C22.316 2.307.769 1.425.225 1.357c-.272 0-.272.068-.136.204.884.882 1.36 1.154 3.195 1.425 4.282.61 25.83 2.104 30.655 2.782 3.059.476 3.739 1.493 5.03 3.597 3.33 5.43 6.05 8.008 11.76 10.859.067.135.203.135.271.135s.204 0 .272-.068c5.71-2.85 8.428-5.497 11.759-10.858 1.223-2.104 1.971-3.122 5.03-3.597 4.758-.678 26.373-2.171 30.655-2.782 1.835-.272 2.311-.543 3.195-1.425.136-.136.136-.272-.136-.272zM61.604 6.72c-.952 5.022-5.71 9.297-10.4 12.08-.136.067-.204.067-.204.067-.068 0-.136 0-.204-.068-4.69-2.782-9.448-7.057-10.4-12.08-.34-1.9.408-2.239 1.564-2.646 2.107-.747 7-2.308 9.04-2.308 2.04 0 6.933 1.493 9.04 2.308 1.224.407 1.903.814 1.564 2.647zm-5.778-.475l.136.067c.068.068.136.068.136.204v2.307h.612V6.108h-.748l-.136.136zm-2.787.203l-.068-.34h-1.903L51 6.245l.136.067c.068.068.068.068.068.204v2.307h1.835v-.339h-1.223v-.882h1.087v-.34h-1.087v-.814h1.223zm-3.67 25.381l-4.758-4.954h-.204v6.99h.951V28.91L50.116 34h.204v-7.194h-.951v5.022zm-10.74 1.968h3.67v-.814h-2.718v-2.24h2.515v-.882H39.58V27.69h2.72v-.815h-3.67v6.922zm-4.35-2.918h1.427v1.358c-.407.475-1.223.814-2.107.814-1.631 0-2.65-1.154-2.65-2.715 0-1.56 1.019-2.714 2.582-2.714 1.088 0 1.836.543 2.311 1.29l.68-.544c-.612-1.018-1.631-1.696-3.059-1.696-2.039 0-3.534 1.56-3.534 3.596s1.495 3.597 3.602 3.597c1.292 0 2.311-.543 3.059-1.29v-2.646h-2.311v.95zm30.247 2.918h.952v-6.99h-.952v6.99zm-11.827 0h3.67v-.814h-2.718v-2.24h2.515v-.882H53.65V27.69h2.719v-.815H52.7v6.922zm17.469-4.004l-.68-.203c-.543-.136-.883-.475-.883-.95 0-.611.475-1.018 1.223-1.018.68 0 1.156.34 1.495.95l.68-.475c-.34-.747-1.087-1.358-2.175-1.358-1.36 0-2.175.883-2.175 1.969 0 .95.68 1.56 1.7 1.832l.679.203c.816.204 1.156.611 1.156 1.154 0 .679-.544 1.222-1.36 1.222-.952 0-1.495-.543-1.767-1.29l-.748.408c.34.882 1.088 1.764 2.515 1.764s2.38-.882 2.38-2.104c-.137-1.154-.817-1.764-2.04-2.104zm-9.38 0l-.68-.203c-.544-.136-.883-.475-.883-.95 0-.611.475-1.018 1.223-1.018.68 0 1.156.34 1.495.95l.68-.475c-.34-.747-1.087-1.358-2.175-1.358-1.36 0-2.175.883-2.175 1.969 0 .95.68 1.56 1.7 1.832l.679.203c.816.204 1.155.611 1.155 1.154 0 .679-.543 1.222-1.359 1.222-.952 0-1.495-.543-1.767-1.29l-.884.34c.34.882 1.088 1.764 2.515 1.764 1.428 0 2.38-.882 2.38-2.104 0-1.085-.749-1.696-1.904-2.036z" fill="#fff"/></svg>