<svg width="102" height="34" viewBox="0 0 102 34" fill="none" xmlns="http://www.w3.org/2000/svg">
<path d="M44.0669 7.53293L44.3388 7.66866C44.4068 7.66866 44.4747 7.73653 44.4747 7.80439V8.41517C44.3388 8.48303 44.2028 8.5509 44.0669 8.5509C43.5231 8.5509 43.1833 8.14371 43.1833 7.53293C43.1833 6.92216 43.5231 6.44711 44.1349 6.44711C44.2708 6.44711 44.6107 6.44711 44.9505 6.71856L45.0865 6.31138C44.6786 6.17565 44.4747 6.10778 44.1349 6.10778C43.3192 6.10778 42.6395 6.58283 42.6395 7.53293C42.6395 8.41517 43.2512 8.89022 44.0669 8.89022C44.6786 8.89022 45.0185 8.68663 45.0865 8.61876V7.39721H44.2028L44.0669 7.53293ZM47.5335 6.44711L47.4655 6.10778H45.5623L45.4943 6.24351L45.5623 6.31138C45.6302 6.37924 45.6302 6.37924 45.6302 6.51497V8.82236H47.4655V8.48303H46.242V7.6008H47.3295V7.26148H46.242V6.44711H47.5335ZM98.9879 4.27545C94.2299 4.68264 69.8281 6.99002 68.6726 7.12575C66.5655 7.39721 65.6139 7.94012 64.8662 9.16168C62.2833 13.1657 61.1278 15.1337 57.7972 17.7804C57.6612 17.9162 57.6612 17.984 57.9331 17.984C61.6715 17.3733 64.4584 16.7625 69.8281 15.5409C70.032 15.4731 70.032 15.4731 69.8281 15.4052C67.5171 15.2695 65.478 15.1337 64.1185 14.998C63.7787 14.998 63.7787 14.8623 63.9146 14.6587C64.3224 14.1836 64.6623 14.1158 65.6819 14.1158C66.6335 14.1158 68.9445 14.1158 71.2555 14.1836C75.8776 14.1836 80.4997 13.0299 86.1413 11.1297C86.2093 11.1297 86.2093 11.0619 86.1413 11.0619C78.1886 11.2655 68.4687 11.3333 66.9053 11.3333C66.7014 11.3333 66.7014 11.1976 66.8374 10.994C67.1772 10.5868 67.5851 10.3832 68.9445 10.2475C70.7797 10.1118 86.5491 9.36527 89.1321 9.22954C92.1908 9.09381 94.026 8.61876 96.541 6.71856C97.2886 6.17565 98.2402 5.36128 99.1239 4.47904C99.2598 4.34331 99.2598 4.27545 98.9879 4.27545ZM50.0484 7.94012L48.553 6.10778H48.0093L47.9413 6.24351L48.0772 6.31138C48.1452 6.37924 48.2132 6.37924 48.2132 6.51497V8.82236H48.621V7.05788L49.9804 8.82236H50.4562V6.10778H50.0484V7.94012ZM44.2028 17.7804C40.8722 15.1337 39.7167 13.1657 37.1338 9.16168C36.3861 7.94012 35.4345 7.39721 33.3274 7.12575C32.1719 6.99002 7.83805 4.7505 3.01207 4.27545C2.74019 4.27545 2.74019 4.34331 2.9441 4.47904C3.75976 5.36128 4.77933 6.17565 5.45905 6.71856C7.974 8.61876 9.80923 9.09381 12.8679 9.22954C15.4509 9.29741 31.2203 10.1118 33.0555 10.2475C34.4149 10.3154 34.7548 10.5868 35.1626 10.994C35.2986 11.1976 35.3665 11.3333 35.0947 11.3333C33.5313 11.3333 23.8793 11.2655 15.8587 11.0619C15.7907 11.0619 15.7907 11.1297 15.8587 11.1297C21.5683 13.0299 26.1224 14.1836 30.7445 14.1836C33.0555 14.1836 35.4345 14.1158 36.3181 14.1158C37.3377 14.1158 37.7455 14.1836 38.0854 14.6587C38.2213 14.8623 38.2213 14.998 37.8815 14.998C36.4541 15.1337 34.4829 15.2695 32.1719 15.4052C31.968 15.4052 31.968 15.4731 32.1719 15.5409C37.4737 16.8303 40.3285 17.3733 44.0669 17.984C44.3388 17.984 44.3388 17.9162 44.2028 17.7804ZM54.7384 7.19361C54.3986 6.99002 54.0587 6.92216 54.0587 6.6507C54.0587 6.51497 54.1947 6.37924 54.4665 6.37924C54.7384 6.37924 55.0103 6.51497 55.2822 6.58283L55.3502 6.17565C55.1463 6.10779 54.8064 6.03992 54.5345 6.03992C53.8548 6.03992 53.5149 6.37924 53.5149 6.78643C53.5149 7.19361 53.7868 7.39721 54.1947 7.6008C54.5345 7.73653 54.8744 7.87226 54.8744 8.14371C54.8744 8.34731 54.7384 8.48303 54.3986 8.48303C54.1267 8.48303 53.7868 8.34731 53.5829 8.27944L53.5149 8.75449C53.6509 8.75449 54.0587 8.89022 54.3986 8.89022C54.9424 8.89022 55.4861 8.61876 55.4861 8.14371C55.4182 7.6008 55.0783 7.39721 54.7384 7.19361ZM58.6128 7.19361C58.273 6.99002 57.9331 6.92216 57.9331 6.6507C57.9331 6.51497 58.069 6.37924 58.3409 6.37924C58.6128 6.37924 58.8847 6.51497 59.1566 6.58283L59.2246 6.17565C59.0206 6.10779 58.6808 6.03992 58.4089 6.03992C57.7292 6.03992 57.3214 6.37924 57.3214 6.78643C57.3214 7.19361 57.5932 7.39721 58.0011 7.6008C58.3409 7.73653 58.6808 7.87226 58.6808 8.14371C58.6808 8.34731 58.5448 8.48303 58.205 8.48303C57.9331 8.48303 57.5932 8.34731 57.3893 8.27944L57.3214 8.75449C57.4573 8.75449 57.8651 8.89022 58.205 8.89022C58.7488 8.89022 59.2925 8.61876 59.2925 8.14371C59.2925 7.6008 58.9527 7.39721 58.6128 7.19361ZM101.775 1.35729C101.231 1.42515 79.684 2.30739 66.7694 2.78244C63.5747 2.91816 62.6231 2.8503 59.9722 2.03593C56.0299 0.814371 52.4954 0 51 0C49.5046 0 45.9701 0.814371 42.0278 2.03593C39.3769 2.91816 38.4253 2.98603 35.2306 2.78244C22.316 2.30739 0.769011 1.42515 0.225238 1.35729C-0.0466483 1.35729 -0.0466483 1.42515 0.0892948 1.56088C0.972925 2.44311 1.44873 2.71457 3.28396 2.98603C7.56617 3.59681 29.1132 5.08982 33.9391 5.76846C36.9979 6.24351 37.6776 7.26148 38.969 9.36527C42.2996 14.7944 45.0185 17.3733 50.7281 20.2236C50.7961 20.3593 50.932 20.3593 51 20.3593C51.068 20.3593 51.2039 20.3593 51.2719 20.2914C56.9815 17.4411 59.7004 14.7944 63.031 9.43313C64.2545 7.32934 65.0021 6.31138 68.0609 5.83633C72.8189 5.15769 94.4338 3.66467 98.716 3.05389C100.551 2.78244 101.027 2.51098 101.911 1.62874C102.047 1.49301 102.047 1.35729 101.775 1.35729ZM61.6036 6.71856C60.652 11.7405 55.894 16.016 51.2039 18.7984C51.068 18.8663 51 18.8663 51 18.8663C50.932 18.8663 50.8641 18.8663 50.7961 18.7984C46.106 16.016 41.348 11.7405 40.3964 6.71856C40.0566 4.81836 40.8043 4.47904 41.9598 4.07186C44.0669 3.32535 48.9609 1.76447 51 1.76447C53.0391 1.76447 57.9331 3.25749 60.0402 4.07186C61.2637 4.47904 61.9434 4.88623 61.6036 6.71856ZM55.826 6.24351L55.9619 6.31138C56.0299 6.37924 56.0979 6.37924 56.0979 6.51497V8.82236H56.7096V6.10778H55.9619L55.826 6.24351ZM53.0391 6.44711L52.9712 6.10778H51.068L51 6.24351L51.1359 6.31138C51.2039 6.37924 51.2039 6.37924 51.2039 6.51497V8.82236H53.0391V8.48303H51.8157V7.6008H52.9032V7.26148H51.8157V6.44711H53.0391ZM49.3687 31.8283L44.6107 26.8743H44.4068V33.8643H45.3584V28.9102L50.1164 34H50.3203V26.8064H49.3687V31.8283ZM38.6292 33.7964H42.2996V32.982H39.5808V30.7425H42.0957V29.8603H39.5808V27.6886H42.2996V26.8743H38.6292V33.7964ZM34.279 30.8782H35.7064V32.2355C35.2986 32.7106 34.4829 33.0499 33.5993 33.0499C31.968 33.0499 30.9484 31.8962 30.9484 30.3353C30.9484 28.7745 31.968 27.6208 33.5313 27.6208C34.6189 27.6208 35.3665 28.1637 35.8423 28.9102L36.5221 28.3673C35.9103 27.3493 34.8907 26.6707 33.4633 26.6707C31.4242 26.6707 29.9288 28.2315 29.9288 30.2675C29.9288 32.3034 31.4242 33.8643 33.5313 33.8643C34.8228 33.8643 35.8423 33.3214 36.59 32.5749V29.9281H34.279V30.8782ZM64.5263 33.7964H65.478V26.8064H64.5263V33.7964ZM52.6993 33.7964H56.3698V32.982H53.6509V30.7425H56.1658V29.8603H53.6509V27.6886H56.3698V26.8743H52.6993V33.7964ZM70.168 29.7924L69.4883 29.5888C68.9445 29.4531 68.6046 29.1138 68.6046 28.6387C68.6046 28.0279 69.0804 27.6208 69.8281 27.6208C70.5078 27.6208 70.9836 27.9601 71.3235 28.5709L72.0032 28.0958C71.6634 27.3493 70.9157 26.7385 69.8281 26.7385C68.4687 26.7385 67.653 27.6208 67.653 28.7066C67.653 29.6567 68.3327 30.2675 69.3523 30.5389L70.032 30.7425C70.8477 30.9461 71.1876 31.3533 71.1876 31.8962C71.1876 32.5749 70.6438 33.1178 69.8281 33.1178C68.8765 33.1178 68.3327 32.5749 68.0609 31.8283L67.3132 32.2355C67.653 33.1178 68.4007 34 69.8281 34C71.2555 34 72.2071 33.1178 72.2071 31.8962C72.0712 30.7425 71.3915 30.1317 70.168 29.7924ZM60.7879 29.7924L60.1082 29.5888C59.5644 29.4531 59.2246 29.1138 59.2246 28.6387C59.2246 28.0279 59.7004 27.6208 60.4481 27.6208C61.1278 27.6208 61.6036 27.9601 61.9434 28.5709L62.6231 28.0958C62.2833 27.3493 61.5356 26.7385 60.4481 26.7385C59.0886 26.7385 58.273 27.6208 58.273 28.7066C58.273 29.6567 58.9527 30.2675 59.9722 30.5389L60.652 30.7425C61.4676 30.9461 61.8075 31.3533 61.8075 31.8962C61.8075 32.5749 61.2637 33.1178 60.4481 33.1178C59.4964 33.1178 58.9527 32.5749 58.6808 31.8283L57.7972 32.1677C58.137 33.0499 58.8847 33.9321 60.3121 33.9321C61.7395 33.9321 62.6911 33.0499 62.6911 31.8283C62.6911 30.7425 61.9434 30.1317 60.7879 29.7924Z" fill="white"/>
</svg>
